<svg xmlns="http://www.w3.org/2000/svg" viewBox="0 0 96 96">
  <defs>
    <linearGradient id="bg" x1="0" y1="0" x2="0" y2="1">
      <stop offset="0" stop-color="#eef2fb"/>
      <stop offset="1" stop-color="#cfdaf3"/>
    </linearGradient>
    <radialGradient id="skin" cx="0.42" cy="0.38" r="0.7">
      <stop offset="0" stop-color="#e8b996"/>
      <stop offset="0.7" stop-color="#d49a74"/>
      <stop offset="1" stop-color="#b97d5a"/>
    </radialGradient>
    <linearGradient id="neck" x1="0" y1="0" x2="0" y2="1">
      <stop offset="0" stop-color="#a86d4c"/>
      <stop offset="0.5" stop-color="#c88d68"/>
    </linearGradient>
    <linearGradient id="hair" x1="0" y1="0" x2="1" y2="1">
      <stop offset="0" stop-color="#3a2a22"/>
      <stop offset="1" stop-color="#17110e"/>
    </linearGradient>
    <linearGradient id="shirt" x1="0" y1="0" x2="0" y2="1">
      <stop offset="0" stop-color="#4a7bf7"/>
      <stop offset="1" stop-color="#2451c9"/>
    </linearGradient>
  </defs>

  <rect width="96" height="96" fill="url(#bg)"/>

  <!-- Shoulders and collar -->
  <path d="M10 96c1-17 12-27 27-30l11 6 11-6c15 3 26 13 27 30z" fill="url(#shirt)"/>
  <path d="M37 66l11 10 11-10-3-3-8 6-8-6z" fill="#1d43a8"/>

  <!-- Neck -->
  <path d="M40 54h16v10c0 5-4 9-8 9s-8-4-8-9z" fill="url(#neck)"/>

  <!-- Ears -->
  <ellipse cx="30.5" cy="42" rx="3.5" ry="5.5" fill="#c98d68"/>
  <ellipse cx="65.5" cy="42" rx="3.5" ry="5.5" fill="#c98d68"/>

  <!-- Face -->
  <path d="M31 38c0-11 7.5-18 17-18s17 7 17 18c0 12-7 21-17 21s-17-9-17-21z" fill="url(#skin)"/>

  <!-- Brows, eyes, nose, mouth -->
  <path d="M37 36.5c2-1.6 5-1.8 7-0.6M52 35.9c2-1.2 5-1 7 0.6" stroke="#2b1d16" stroke-width="1.6" stroke-linecap="round" fill="none"/>
  <ellipse cx="40.5" cy="41" rx="2" ry="1.5" fill="#2b1d16"/>
  <ellipse cx="55.5" cy="41" rx="2" ry="1.5" fill="#2b1d16"/>
  <circle cx="41.1" cy="40.5" r="0.5" fill="#fff" opacity="0.8"/>
  <circle cx="56.1" cy="40.5" r="0.5" fill="#fff" opacity="0.8"/>
  <path d="M48 42.5c-0.6 3-1.6 5-2.6 6.2 1.2 0.8 3.6 0.8 5 0" stroke="#a8694a" stroke-width="1.2" stroke-linecap="round" stroke-linejoin="round" fill="none"/>
  <path d="M43 52c3 2.2 7 2.2 10 0" stroke="#9a4f3c" stroke-width="1.6" stroke-linecap="round" fill="none"/>

  <!-- Hair -->
  <path d="M29.5 41c-1.5-14 7-24 19-24 11 0 19.5 8 18 23-1.5-5-3.5-8.5-6.5-10.5-6 2.5-15 2.5-22-1.5-3.5 3-6.5 7.5-8.5 13z" fill="url(#hair)"/>
  <path d="M38 22c5-2.5 12-2.8 17-0.6" stroke="#5a4236" stroke-width="1.4" stroke-linecap="round" fill="none" opacity="0.7"/>
</svg>
